<?xml version="1.0" encoding="utf-8"?>
<!-- Generator: Adobe Illustrator 21.1.0, SVG Export Plug-In . SVG Version: 6.00 Build 0)  -->
<svg version="1.1" id="Layer_1" xmlns="http://www.w3.org/2000/svg" xmlns:xlink="http://www.w3.org/1999/xlink" x="0px" y="0px" width="40px" height="40px"
	 viewBox="0 0 27.6 23" style="enable-background:new 0 0 27.6 23;" xml:space="preserve">
<style type="text/css">
	.st0{fill:#7c7d80;} #XMLID_1_, #XMLID_2_{fill:#7c7d80;}
</style>
<g>
	<g>
		<path class="st0" d="M22.2,17.4h-15c-0.4,0-0.8-0.3-0.8-0.8V2H3.5C3.1,2,2.8,1.7,2.8,1.3s0.3-0.8,0.8-0.8h3.7C7.6,0.5,8,0.8,8,1.3
			v2.7H24c0.2,0,0.4,0.1,0.6,0.3c0.1,0.2,0.2,0.4,0.2,0.6l-1.8,12C22.9,17.1,22.6,17.4,22.2,17.4z M8,15.9h13.6l1.6-10.5H8V15.9z"/>
	</g>
	<g id="XMLID_1_">
		<ellipse cx="8.3" cy="20.9" rx="1.8" ry="1.8"/>
	</g>
	<g id="XMLID_2_">
		<ellipse cx="22.2" cy="20.9" rx="1.8" ry="1.8"/>
	</g>
	<g>
		<rect x="7.2" y="9.8" class="st0" width="15.9" height="1.5"/>
	</g>
	<g>
		<rect x="11.6" y="4.7" class="st0" width="1.5" height="5.9"/>
	</g>
	<g>
		<rect x="16.5" y="10.6" class="st0" width="1.5" height="6"/>
	</g>
</g>
</svg>
